<svg width="61" height="25" viewBox="0 0 61 25" fill="none" xmlns="http://www.w3.org/2000/svg">
<path d="M11.812 23.5066V13.9297H21.9271L23.0123 15.3479L24.1334 13.9297H60.8485V22.8462C60.8485 22.8462 59.8883 23.4971 58.7779 23.5066H38.448L37.2244 21.997V23.5066H33.2149V20.9296C33.2149 20.9296 32.6672 21.2893 31.4831 21.2893H30.1183V23.5066H24.0476L22.9639 22.058L21.8636 23.5066H11.812Z" fill="white"/>
<path d="M11.312 23.5066V24.0066H11.812H21.8636H22.1117L22.2618 23.8091L22.9609 22.8886L23.6472 23.8061L23.7972 24.0066H24.0476H30.1183H30.6183V23.5066V21.7893H31.4831C31.9922 21.7893 32.4013 21.7281 32.7149 21.6504V23.5066V24.0066H33.2149H37.2244H37.7244V23.5066V23.408L38.0595 23.8215L38.2096 24.0066H38.448L58.7779 24.0067L58.7822 24.0066C59.4286 24.001 60.0151 23.8104 60.4282 23.6317C60.6372 23.5412 60.8084 23.451 60.9286 23.3825C60.9889 23.3481 61.0368 23.319 61.0706 23.2978C61.0876 23.2872 61.101 23.2785 61.1108 23.2721L61.1228 23.2643L61.1266 23.2617L61.128 23.2607L61.1286 23.2604L61.1288 23.2602C61.129 23.2601 61.1291 23.26 60.8485 22.8462L61.1291 23.26L61.3485 23.1113V22.8462V13.9297V13.4297H60.8485H24.1334H23.8913L23.7412 13.6196L23.0187 14.5335L22.3241 13.6258L22.174 13.4297H21.9271H11.812H11.312V13.9297V23.5066Z" stroke="#FCFCFC" stroke-opacity="0.5"/>
<path d="M0 6.71186L2.28098 1.38086H6.2257L7.52018 4.36707V1.38086H12.4238L13.1944 3.5392L13.9415 1.38086H35.9538V2.46593C35.9538 2.46593 37.111 1.38086 39.0127 1.38086L46.1549 1.40588L47.427 4.35301V1.38086H51.5307L52.6601 3.07375V1.38086H56.8014V10.9578H52.6601L51.5777 9.25943V10.9578H45.5486L44.9423 9.44813H43.3214L42.725 10.9578H38.6362C36.9998 10.9578 35.9538 9.89489 35.9538 9.89489V10.9578H29.789L28.5654 9.44813V10.9578H5.64131L5.03542 9.44813H3.41975L2.81813 10.9578H0V6.71186Z" fill="white"/>
<path d="M-0.459689 6.51518L-0.5 6.60939V6.71186V10.9578V11.4578H0H2.81813H3.15712L3.28261 11.1429L3.75873 9.94813H4.69732L5.17729 11.144L5.30322 11.4578H5.64131H28.5654H29.0654V10.9578V10.8591L29.4005 11.2726L29.5506 11.4578H29.789H35.9538H36.4538V10.9578V10.8721C36.9718 11.1641 37.7201 11.4578 38.6362 11.4578H42.725H43.065L43.19 11.1415L43.6615 9.94813H44.6043L45.0846 11.1441L45.2106 11.4578H45.5486H51.5777H52.0777V10.9743L52.2384 11.2265L52.3858 11.4578H52.6601H56.8014H57.3014V10.9578V1.38086V0.880859H56.8014H52.6601H52.1601V1.38086V1.42339L51.9466 1.10337L51.7981 0.880859H51.5307H47.427H46.927V1.38086V1.93303L46.6139 1.20773L46.4841 0.907032L46.1566 0.905885L39.0145 0.880859H39.0127C37.965 0.880859 37.122 1.17994 36.5413 1.47883C36.5114 1.49419 36.4823 1.50955 36.4538 1.52489V1.38086V0.880859H35.9538H13.9415H13.5855L13.469 1.21731L13.1871 2.03172L12.8947 1.21274L12.7762 0.880859H12.4238H7.52018H7.02018V1.38086V1.95649L6.68445 1.182L6.55391 0.880859H6.2257H2.28098H1.95107L1.82129 1.18417L-0.459689 6.51518Z" stroke="#FCFCFC" stroke-opacity="0.5"/>
<path d="M3.08826 2.56152L0.0117188 9.73244H2.01471L2.58237 8.29649H5.88245L6.44717 9.73244H8.49428L5.42067 2.56152H3.08826ZM4.22653 4.23041L5.23243 6.73965H3.21768L4.22653 4.23041V4.23041Z" fill="#016FD0"/>
<path d="M3.08826 2.06152H2.7587L2.62877 2.36439L-0.447777 9.53531L-0.746871 10.2324H0.0117188H2.01471H2.3547L2.47969 9.91626L2.92236 8.79649H5.54181L5.98186 9.91544L6.10653 10.2324H6.44717H8.49428H9.25258L8.95384 9.53546L5.88024 2.36454L5.75036 2.06152H5.42067H3.08826ZM3.9576 6.23965L4.22585 5.57246L4.49331 6.23965H3.9576Z" stroke="#FCFCFC" stroke-opacity="0.5"/>
<path d="M8.70605 9.73147V2.56055L11.5524 2.57115L13.208 7.1945L14.8238 2.56055H17.6474V9.73147H15.8592V4.44763L13.9636 9.73147H12.3952L10.4943 4.44763V9.73147H8.70605Z" fill="#016FD0"/>
<path d="M8.20605 9.73147V10.2315H8.70605H10.4943H10.9943V9.73147V7.31449L11.9248 9.90073L12.0437 10.2315H12.3952H13.9636H14.3154L14.4342 9.90031L15.3592 7.32201V9.73147V10.2315H15.8592H17.6474H18.1474V9.73147V2.56055V2.06055H17.6474H14.8238H14.4687L14.3517 2.39592L13.2017 5.69389L12.0231 2.40259L11.9049 2.07246L11.5543 2.07115L8.70792 2.06055L8.20605 2.05868V2.56055V9.73147Z" stroke="#FCFCFC" stroke-opacity="0.5"/>
<path d="M18.8711 9.73147V2.56055H24.7065V4.16457H20.6782V5.39117H24.6124V6.90084H20.6782V8.17463H24.7065V9.73147H18.8711Z" fill="#016FD0"/>
<path d="M18.3711 9.73147V10.2315H18.8711H24.7065H25.2065V9.73147V8.17463V7.67463H24.7065H21.1782V7.40084H24.6124H25.1124V6.90084V5.39117V4.89117H24.6124H21.1782V4.66457H24.7065H25.2065V4.16457V2.56055V2.06055H24.7065H18.8711H18.3711V2.56055V9.73147Z" stroke="#FCFCFC" stroke-opacity="0.5"/>
<path d="M25.7417 2.56152V9.73244H27.53V7.18488H28.2829L30.4271 9.73244H32.6125L30.2595 7.09053C31.2251 7.00884 32.2213 6.17794 32.2213 4.88795C32.2213 3.37894 31.0398 2.56152 29.7212 2.56152H25.7417V2.56152ZM27.53 4.16554H29.5741C30.0645 4.16554 30.4212 4.55008 30.4212 4.92038C30.4212 5.39678 29.959 5.67521 29.6006 5.67521H27.53V4.16554V4.16554Z" fill="#016FD0"/>
<path d="M25.2417 9.73244V10.2324H25.7417H27.53H28.03V9.73244V7.68488H28.0502L30.0446 10.0544L30.1944 10.2324H30.4271H32.6125H33.7273L32.9858 9.3999L31.1647 7.35516C32.0229 6.95497 32.7213 6.0794 32.7213 4.88795C32.7213 3.99097 32.3647 3.26905 31.7904 2.77863C31.2256 2.29628 30.4795 2.06152 29.7212 2.06152H25.7417V2.56152H25.2417V9.73244ZM28.03 5.17521V4.66554H29.5741C29.6852 4.66554 29.7756 4.70826 29.8379 4.76723C29.9049 4.8307 29.9212 4.89361 29.9212 4.92038C29.9212 4.98062 29.8966 5.03473 29.8317 5.08706C29.7576 5.14671 29.6625 5.17521 29.6006 5.17521H28.03Z" stroke="#FCFCFC" stroke-opacity="0.5"/>
<path d="M34.7773 9.73147H32.9514V2.56055H34.7773V9.73147Z" fill="#016FD0"/>
<path d="M34.7773 10.2315H35.2773V9.73147V2.56055V2.06055H34.7773H32.9514H32.4514V2.56055V9.73147V10.2315H32.9514H34.7773Z" stroke="#FCFCFC" stroke-opacity="0.5"/>
<path d="M39.1069 9.73147H38.7127C36.8058 9.73147 35.6479 8.22535 35.6479 6.17549C35.6479 4.075 36.7928 2.56055 39.201 2.56055H41.1775V4.25892H39.1287C38.1511 4.25892 37.4598 5.02373 37.4598 6.19319C37.4598 7.58192 38.2503 8.16519 39.3892 8.16519H39.8598L39.1069 9.73147Z" fill="#016FD0"/>
<path d="M39.1069 10.2315H39.4213L39.5575 9.9481L40.3105 8.38183L40.655 7.66519H39.8598H39.3892C38.8991 7.66519 38.5572 7.53985 38.3397 7.33555C38.128 7.13667 37.9598 6.79279 37.9598 6.19319C37.9598 5.70553 38.1032 5.34634 38.304 5.11665C38.5005 4.89201 38.7785 4.75892 39.1287 4.75892H41.1775H41.6775V4.25892V2.56055V2.06055H41.1775H39.201C37.888 2.06055 36.8539 2.47701 36.1527 3.24263C35.4581 4.001 35.1479 5.03885 35.1479 6.17549C35.1479 7.2907 35.4629 8.3012 36.0813 9.04246C36.7073 9.79291 37.616 10.2315 38.7127 10.2315H39.1069Z" stroke="#FCFCFC" stroke-opacity="0.5"/>
<path d="M42.9982 2.56152L39.9216 9.73244H41.9246L42.4923 8.29649H45.7924L46.3571 9.73244H48.4042L45.3306 2.56152H42.9982ZM44.1364 4.23041L45.1423 6.73965H43.1276L44.1364 4.23041Z" fill="#016FD0"/>
<path d="M42.9982 2.06152H42.6686L42.5387 2.36439L39.4621 9.53531L39.163 10.2324H39.9216H41.9246H42.2646L42.3896 9.91626L42.8323 8.79649H45.4517L45.8918 9.91544L46.0164 10.2324H46.3571H48.4042H49.1625L48.8638 9.53546L45.7902 2.36454L45.6603 2.06152H45.3306H42.9982ZM43.8675 6.23965L44.1358 5.57246L44.4032 6.23965H43.8675Z" stroke="#FCFCFC" stroke-opacity="0.5"/>
<path d="M48.613 9.73147V2.56055H50.8866L53.7896 7.06597V2.56055H55.5779V9.73147H53.3779L50.4013 5.10811V9.73147H48.613Z" fill="#016FD0"/>
<path d="M48.113 9.73147V10.2315H48.613H50.4013H50.9013V9.73147V6.80841L52.9575 10.0021L53.1051 10.2315H53.3779H55.5779H56.0779V9.73147V2.56055V2.06055H55.5779H53.7896H53.2896V2.56055V5.36685L51.3069 2.28973L51.1593 2.06055H50.8866H48.613H48.113V2.56055V9.73147Z" stroke="#FCFCFC" stroke-opacity="0.5"/>
<path d="M13.0356 22.2803V15.1094H18.8711V16.7134H14.8427V17.94H18.777V19.4497H14.8427V20.7235H18.8711V22.2803H13.0356Z" fill="#016FD0"/>
<path d="M12.5356 22.2803V22.7803H13.0356H18.8711H19.3711V22.2803V20.7235V20.2235H18.8711H15.3427V19.9497H18.777H19.277V19.4497V17.94V17.44H18.777H15.3427V17.2134H18.8711H19.3711V16.7134V15.1094V14.6094H18.8711H13.0356H12.5356V15.1094V22.2803Z" stroke="#FCFCFC" stroke-opacity="0.5"/>
<path d="M41.6292 22.2803V15.1094H47.4646V16.7134H43.4363V17.94H47.3516V19.4497H43.4363V20.7235H47.4646V22.2803H41.6292Z" fill="#016FD0"/>
<path d="M41.1292 22.2803V22.7803H41.6292H47.4646H47.9646V22.2803V20.7235V20.2235H47.4646H43.9363V19.9497H47.3516H47.8516V19.4497V17.94V17.44H47.3516H43.9363V17.2134H47.4646H47.9646V16.7134V15.1094V14.6094H47.4646H41.6292H41.1292V15.1094V22.2803Z" stroke="#FCFCFC" stroke-opacity="0.5"/>
<path d="M19.0974 22.2803L21.9387 18.7391L19.0298 15.1094H21.2828L23.0152 17.3532L24.7535 15.1094H26.9182L24.0476 18.6948L26.894 22.2803H24.6414L22.9593 20.0718L21.3181 22.2803H19.0974Z" fill="#016FD0"/>
<path d="M18.7074 21.9674L18.0552 22.7803H19.0974H21.3181H21.5695L21.7194 22.5785L22.9642 20.9035L24.2436 22.5833L24.3937 22.7803H24.6414H26.894H27.9294L27.2856 21.9694L24.687 18.6962L27.3085 15.4219L27.959 14.6094H26.9182H24.7535H24.5083L24.3582 14.8032L23.0158 16.5359L21.6786 14.8038L21.5284 14.6094H21.2828H19.0298H17.9883L18.6396 15.4221L21.2978 18.7389L18.7074 21.9674Z" stroke="#FCFCFC" stroke-opacity="0.5"/>
<path d="M27.1064 15.1104V22.2813H28.9418V20.0168H30.8242C32.417 20.0168 33.6243 19.1697 33.6243 17.5223C33.6243 16.1576 32.6774 15.1104 31.0565 15.1104H27.1064V15.1104ZM28.9418 16.7321H30.9242C31.4387 16.7321 31.8066 17.0482 31.8066 17.5577C31.8066 18.0363 31.4406 18.3833 30.9183 18.3833H28.9418V16.7321Z" fill="#016FD0"/>
<path d="M26.6064 22.2813V22.7813H27.1064H28.9418H29.4418V22.2813V20.5168H30.8242C31.7035 20.5168 32.5279 20.2832 33.1417 19.7713C33.7677 19.2493 34.1243 18.4792 34.1243 17.5223C34.1243 16.7222 33.8448 15.9854 33.2989 15.4482C32.7522 14.9101 31.9774 14.6104 31.0565 14.6104H27.1064V15.1104H26.6064V22.2813ZM29.4418 17.2321H30.9242C31.0803 17.2321 31.173 17.2791 31.2212 17.323C31.2643 17.3624 31.3066 17.4302 31.3066 17.5577C31.3066 17.729 31.1967 17.8833 30.9183 17.8833H29.4418V17.2321Z" stroke="#FCFCFC" stroke-opacity="0.5"/>
<path d="M34.4009 15.1094V22.2803H36.1892V19.7327H36.9421L39.0863 22.2803H41.2716L38.9186 19.6384C39.8843 19.5567 40.8804 18.7258 40.8804 17.4358C40.8804 15.9268 39.699 15.1094 38.3804 15.1094H34.4009V15.1094ZM36.1892 16.7134H38.2333C38.7237 16.7134 39.0804 17.0979 39.0804 17.4682C39.0804 17.9446 38.6182 18.2231 38.2598 18.2231H36.1892V16.7134V16.7134Z" fill="#016FD0"/>
<path d="M33.9009 22.2803V22.7803H34.4009H36.1892H36.6892V22.2803V20.2327H36.7094L38.7037 22.6023L38.8536 22.7803H39.0863H41.2716H42.3865L41.645 21.9477L39.8239 19.903C40.682 19.5028 41.3804 18.6273 41.3804 17.4358C41.3804 16.5388 41.0239 15.8169 40.4496 15.3265C39.8847 14.8441 39.1387 14.6094 38.3804 14.6094H34.4009V15.1094H33.9009V22.2803ZM36.6892 17.7231V17.2134H38.2333C38.3443 17.2134 38.4347 17.2561 38.4971 17.3151C38.5641 17.3786 38.5804 17.4415 38.5804 17.4682C38.5804 17.5285 38.5558 17.5826 38.4909 17.6349C38.4168 17.6946 38.3216 17.7231 38.2598 17.7231H36.6892Z" stroke="#FCFCFC" stroke-opacity="0.5"/>
<path d="M48.293 22.2803V20.7235H51.8719C52.4014 20.7235 52.6307 20.4366 52.6307 20.1219C52.6307 19.8205 52.4022 19.5157 51.8719 19.5157H50.2546C48.8488 19.5157 48.0659 18.6571 48.0659 17.368C48.0659 16.2182 48.7829 15.1094 50.8719 15.1094H54.3543L53.6013 16.7228H50.5895C50.0138 16.7228 49.8365 17.0257 49.8365 17.3149C49.8365 17.6122 50.0556 17.94 50.4954 17.94H52.1895C53.7567 17.94 54.4367 18.8311 54.4367 19.9981C54.4367 21.2527 53.6789 22.2803 52.1042 22.2803H48.293Z" fill="#016FD0"/>
<path d="M47.793 22.2803V22.7803H48.293H52.1042C53.0057 22.7803 53.7301 22.4825 54.2264 21.9509C54.717 21.4255 54.9367 20.7233 54.9367 19.9981C54.9367 19.3197 54.7377 18.6649 54.2556 18.1792C53.7717 17.6916 53.0676 17.44 52.1895 17.44H50.4954C50.4485 17.44 50.42 17.4315 50.4042 17.4247C50.3883 17.4179 50.3773 17.4094 50.3688 17.4002C50.3493 17.3791 50.3365 17.346 50.3365 17.3149C50.3365 17.2928 50.34 17.2797 50.342 17.2742L50.3431 17.2716L50.3434 17.2712L50.3434 17.2711L50.3434 17.2711L50.3434 17.2712C50.3433 17.2712 50.3434 17.2711 50.3438 17.2707C50.3444 17.2702 50.347 17.2677 50.3533 17.264C50.3597 17.2602 50.3709 17.2545 50.3888 17.2484C50.425 17.2362 50.4885 17.2228 50.5895 17.2228H53.6013H53.9198L54.0544 16.9343L54.8074 15.3208L55.1394 14.6094H54.3543H50.8719C49.7414 14.6094 48.9003 14.9105 48.34 15.4461C47.7789 15.9824 47.5659 16.6904 47.5659 17.368C47.5659 18.1136 47.7941 18.7877 48.2775 19.2768C48.7623 19.7672 49.4485 20.0157 50.2546 20.0157H51.8719C52.0406 20.0157 52.0995 20.0625 52.1111 20.0733C52.1234 20.0846 52.1307 20.0987 52.1307 20.1219C52.1307 20.1546 52.1215 20.1635 52.1156 20.1689C52.1069 20.1767 52.0481 20.2235 51.8719 20.2235H48.293H47.793V20.7235V22.2803Z" stroke="#FCFCFC" stroke-opacity="0.5"/>
<path d="M54.8562 22.2803V20.7235H58.4351C58.9647 20.7235 59.194 20.4366 59.194 20.1219C59.194 19.8205 58.9654 19.5157 58.4351 19.5157H56.8179C55.4121 19.5157 54.6292 18.6571 54.6292 17.368C54.6292 16.2182 55.3461 15.1094 57.4351 15.1094H60.9175L60.1646 16.7228H57.1527C56.577 16.7228 56.3998 17.0257 56.3998 17.3149C56.3998 17.6122 56.6188 17.94 57.0586 17.94H58.7528C60.3199 17.94 60.9999 18.8311 60.9999 19.9981C60.9999 21.2527 60.2421 22.2803 58.6675 22.2803H54.8562Z" fill="#016FD0"/>
<path d="M54.3562 22.2803V22.7803H54.8562H58.6675C59.5689 22.7803 60.2933 22.4825 60.7897 21.9509C61.2802 21.4255 61.4999 20.7233 61.4999 19.9981C61.4999 19.3197 61.3009 18.6649 60.8189 18.1792C60.335 17.6916 59.6308 17.44 58.7528 17.44H57.0586C57.0118 17.44 56.9833 17.4315 56.9674 17.4247C56.9515 17.4179 56.9405 17.4094 56.932 17.4002C56.9126 17.3791 56.8998 17.346 56.8998 17.3149C56.8998 17.2928 56.9033 17.2797 56.9053 17.2742L56.9064 17.2716L56.9066 17.2712L56.9067 17.2711L56.9067 17.2711L56.9066 17.2712C56.9065 17.2712 56.9067 17.2711 56.907 17.2707C56.9076 17.2702 56.9103 17.2677 56.9165 17.264C56.9229 17.2602 56.9342 17.2545 56.952 17.2484C56.9883 17.2362 57.0517 17.2228 57.1527 17.2228H60.1646H60.483L60.6177 16.9343L61.3706 15.3208L61.7026 14.6094H60.9175H57.4351C56.3047 14.6094 55.4636 14.9105 54.9033 15.4461C54.3422 15.9824 54.1292 16.6904 54.1292 17.368C54.1292 18.1136 54.3573 18.7877 54.8407 19.2768C55.3255 19.7672 56.0117 20.0157 56.8179 20.0157H58.4351C58.6038 20.0157 58.6627 20.0625 58.6744 20.0733C58.6866 20.0846 58.694 20.0987 58.694 20.1219C58.694 20.1546 58.6848 20.1635 58.6788 20.1689C58.6701 20.1767 58.6113 20.2235 58.4351 20.2235H54.8562H54.3562V20.7235V22.2803Z" stroke="#FCFCFC" stroke-opacity="0.5"/>
</svg>
