<svg width="22" height="22" viewBox="0 0 24 24" fill="none" xmlns="http://www.w3.org/2000/svg">
<path d="M18.6 23H7.26667C6.01482 23 5 22.0051 5 20.7778V5.22222C5 3.99492 6.01482 3 7.26667 3H13.3403C13.8127 3 14.2733 3.14472 14.6577 3.41392L21.0508 7.89086C21.6465 8.30799 22 8.98148 22 9.69911V18.5556" stroke="#293FE6" stroke-width="2"/>
<path d="M14 3V7.84615C14 9.03572 15.0233 10 16.2857 10H22" stroke="#293FE6" stroke-width="2"/>
<path d="M19.9478 20.0622L23.3426 22.5951" stroke="#293FE6" stroke-width="2" stroke-linecap="round"/>
<path d="M18.978 19.9482L19.4423 19.0845" stroke="#293FE6" stroke-linecap="round"/>
<path d="M18.2678 19.2678C19.2441 18.2914 19.2441 16.7086 18.2678 15.7322C17.2914 14.7559 15.7086 14.7559 14.7322 15.7322C13.7559 16.7086 13.7559 18.2914 14.7322 19.2678C15.7086 20.2441 17.2914 20.2441 18.2678 19.2678Z" stroke="#293FE6" stroke-width="2"/>
<path d="M9 8.41667H11" stroke="#293FE6" stroke-width="2" stroke-linecap="round"/>
<path d="M9 11.9167H13" stroke="#293FE6" stroke-width="2" stroke-linecap="round"/>
<path d="M9 15.4167H11" stroke="#293FE6" stroke-width="2" stroke-linecap="round"/>
<path d="M9 18.9167L10.9992 18.9722" stroke="#293FE6" stroke-width="2" stroke-linecap="round"/>
</svg>
